<svg enable-background="new 0 0 190.5 190.5" viewBox="0 0 190.5 190.5" xmlns="http://www.w3.org/2000/svg"><path d="m190.5 95.3c0-52.7-42.6-95.3-95.2-95.3s-95.3 42.6-95.3 95.3 42.6 95.3 95.3 95.3 95.2-42.7 95.2-95.3z" fill="#9391f7"/><g fill="#fff"><path d="m77.5 99.9c8.2-1.3 13.7-9 12.4-17.2s-9-13.7-17.2-12.4-13.7 9-12.4 17.2c1.4 8.2 9.1 13.7 17.2 12.4zm39.2 0c8.2-1.3 13.7-9 12.4-17.2s-9-13.7-17.2-12.4-13.7 9-12.4 17.2 9 13.7 17.2 12.4z"/><path d="m94.7 23.3c-40.7 0-73.7 33.6-73.7 75h18.8c0-31.1 24.4-56.2 54.8-56.2 30.5 0 54.8 25.2 54.8 56.2h18.8c.2-41.4-32.8-75-73.5-75z"/></g></svg>