<svg fill="none" height="500" viewBox="0 0 500 500" width="500" xmlns="http://www.w3.org/2000/svg"><path clip-rule="evenodd" d="m146.491 4.19156c-191.7554 92.40694-196.3026 389.29244-7.47 487.66544 22.067 11.496 22.885 11.211 16.146-5.636-20.31-50.776-37.14-138.847-25.61-134.011 74.837 31.381 162.152 32.3 232.294 2.443 19.978-8.503 12.335 52.906-16.014 128.667-7.567 20.22-7.328 20.387 13.506 9.39 189.919-100.244 186.826-395.5289-5.112-488.08524-14.96-7.21275-16.007-6.37966-9.989 7.95454 10.154 24.1783 22.626 72.4262 28.659 110.8667 4.487 28.591 4.348 29.044-7.25 23.534-65.308-31.02-159.687-31.002-234.374.045-12.998 5.403.18-70.1801 22.755-130.5098 7.124-19.03901 6.958-19.31054-7.541-12.32364zm141.919 185.32144c117.6 17.007 134.829 88.055 27.967 115.324-102.412 26.132-226.4734-14.652-203.787-66.992 15.457-35.662 100.941-59.161 175.82-48.332z" fill="#0c0b0f" fill-rule="evenodd"/></svg>