<svg viewBox="0 0 414.12 414.13" xmlns="http://www.w3.org/2000/svg" xmlns:xlink="http://www.w3.org/1999/xlink"><linearGradient id="a" gradientTransform="matrix(1 0 0 -1 0 416)" gradientUnits="userSpaceOnUse" x1="134.04" x2="425.52" y1="-11.32" y2="280.17"><stop offset="0" stop-color="#b090f5"/><stop offset="1" stop-color="#5fbfff"/></linearGradient><linearGradient id="b" gradientTransform="matrix(1 0 0 -1 0 416)" gradientUnits="userSpaceOnUse" x1="0" x2="349.01" y1="250.94" y2="250.94"><stop offset="0" stop-color="#68d7fa"/><stop offset="1" stop-color="#7ef1b3"/></linearGradient><path d="m386.9 104.37-8.98-15.68c-2.52-4.41-8.14-5.94-12.55-3.42-.71.41-1.36.9-1.94 1.48l-20.5 20.5c-3.11 3.12-3.6 7.99-1.15 11.66 7.49 11.44 13.49 23.79 17.85 36.75 28.36 84.33-17 175.68-101.33 204.04-16.51 5.55-33.82 8.39-51.24 8.41-26.32.07-52.26-6.36-75.49-18.74l34.76-34.74c59.41 22.49 125.79-7.44 148.28-66.85 4.93-13.01 7.45-26.81 7.45-40.72 0-3.98-.23-7.95-.66-11.91-1.36-13.28-5.03-26.21-10.84-38.23-2.27-4.56-7.81-6.42-12.37-4.15-.87.43-1.67 1-2.37 1.69l-20.81 20.81c-2.25 2.25-3.18 5.5-2.46 8.6l1.75 7.48c8.72 37.09-14.28 74.23-51.37 82.95-16.98 3.99-34.84 1.41-49.99-7.24l-9.15-5.25c-3.6-2.08-8.15-1.48-11.09 1.46l-84.9 84.8c-3.59 3.59-3.59 9.41 0 13 .28.28.59.55.91.8l12.5 9.59c36.06 27.79 80.33 42.8 125.85 42.66 114.17 0 207.06-92.89 207.06-207.06 0-36.02-9.37-71.41-27.22-102.7z" fill="url(#a)"/><path d="m332.91 42.66c-36.05-27.79-80.32-42.8-125.84-42.66-114.18 0-207.07 92.89-207.07 207.07 0 36.02 9.38 71.41 27.22 102.7l8.98 15.68c2.49 4.42 8.1 5.99 12.53 3.49.75-.42 1.44-.95 2.05-1.57l20.49-20.49c3.11-3.12 3.6-7.99 1.15-11.66-7.49-11.44-13.49-23.79-17.85-36.75-28.37-84.32 16.99-175.68 101.31-204.05 16.5-5.55 33.79-8.39 51.2-8.41 26.32-.07 52.25 6.37 75.47 18.74l-34.8 34.76c-59.38-22.5-125.76 7.41-148.26 66.79-4.93 13.03-7.46 26.84-7.46 40.77 0 1.91.51 10.62.67 12.12 1.41 13.19 5.07 26.04 10.84 37.99 2.22 4.59 7.73 6.51 12.32 4.3.93-.45 1.77-1.05 2.5-1.78l20.81-20.8c2.26-2.27 3.19-5.54 2.45-8.66l-1.72-7.42c-1.21-5.17-1.82-10.46-1.84-15.77 0-38.09 30.87-68.96 68.96-68.96 12 0 23.79 3.13 34.2 9.08l9.17 5.25c3.6 2.07 8.14 1.47 11.08-1.46l84.84-84.84c3.6-3.6 3.59-9.43 0-13.03-.28-.28-.58-.55-.9-.79l-12.5-9.66z" fill="url(#b)"/></svg>