<svg fill="none" height="43" viewBox="0 0 43 43" width="43" xmlns="http://www.w3.org/2000/svg"><rect fill="#2775ca" height="42.26" rx="10" width="42.26"/><g fill="#fff"><path d="m16.067 25.0314c-.0738-.3794.2464-.6958.633-.6958h.8002c.3866 0 .6917.3277.8623.6746.4352.8849 1.6932 1.5479 3.137 1.5479 1.793 0 3.3013-1.0224 3.3013-2.2225 0-1.222-1.1446-1.6673-3.5652-2.2564-2.3317-.589-5.2356-1.3219-5.2356-4.4109 0-1.9888 1.617-3.6771 3.8499-4.2432v-1.7231c0-.3866.3134-.7.7-.7h1.9002c.3866 0 .7.3134.7.7v1.7221c1.9671.4996 3.4562 1.8701 3.7828 3.5484.0739.3794-.2463.6958-.6329.6958h-.8002c-.3866 0-.6917-.3277-.8624-.6746-.4352-.8846-1.6931-1.5469-3.1369-1.5469-1.794 0-3.3013 1.0214-3.3013 2.2215 0 1.222 1.1446 1.6673 3.5642 2.2564 2.3327.589 5.2366 1.3219 5.2366 4.4109 0 1.9888-1.617 3.6771-3.8499 4.2432v1.7232c0 .3866-.3134.7-.7.7h-1.9002c-.3866 0-.7-.3134-.7-.7v-1.7222c-1.9679-.4996-3.4564-1.8701-3.7829-3.5484z"/><path d="m16.9231 7.00049c0-.6669-.6232-1.16051-1.2567-.95226-6.19366 2.0309-10.6664 7.85887-10.6664 14.73137 0 6.7961 4.78433 11.939 10.5503 14.5247.6558.2941 1.3728-.2035 1.3728-.9221v-1.0428c0-.4547-.2997-.8529-.7265-1.0119-4.6818-1.7455-8.01711-6.2572-8.01711-11.5479s3.33451-9.8024 8.01711-11.5479c.4268-.15898.7265-.55641.7265-1.01188zm9.1538 0c0-.6669.6232-1.16051 1.2567-.95226 6.1937 2.0309 10.6664 7.85887 10.6664 14.73137 0 6.7961-4.7843 11.939-10.5503 14.5247-.6558.2941-1.3728-.2035-1.3728-.9221v-1.0428c0-.4547.2997-.8529.7265-1.0119 4.6818-1.7455 8.0171-6.2572 8.0171-11.5479s-3.3345-9.8024-8.0171-11.5479c-.4268-.15898-.7265-.55641-.7265-1.01188z"/></g></svg>