<svg fill="#fff" viewBox="0 0 39 38" xmlns="http://www.w3.org/2000/svg"><path d="m14 22.355h2.226c0 1.202 1.524 2.226 3.338 2.226s3.34-1.024 3.34-2.226c0-1.224-1.158-1.67-3.607-2.26-2.359-.59-5.297-1.324-5.297-4.418 0-1.992 1.636-3.683 3.895-4.25v-2.427h3.339v2.426c2.259.568 3.895 2.26 3.895 4.251h-2.226c0-1.202-1.524-2.225-3.338-2.225-1.815 0-3.34 1.023-3.34 2.225 0 1.224 1.158 1.67 3.606 2.26 2.36.59 5.298 1.324 5.298 4.418 0 1.992-1.636 3.683-3.895 4.25v2.427h-3.339v-2.426c-2.26-.568-3.895-2.26-3.895-4.251z"/><path d="m15 1.643c0-.839-.784-1.46-1.581-1.198-7.792 2.555-13.419 9.887-13.419 18.533 0 8.55 6.019 15.02 13.273 18.273.825.37 1.727-.256 1.727-1.16v-1.312c0-.572-.377-1.073-.914-1.273-5.89-2.196-10.086-7.872-10.086-14.528s4.195-12.332 10.086-14.528c.537-.2.914-.7.914-1.273zm9 0c0-.839.784-1.46 1.581-1.198 7.792 2.555 13.419 9.887 13.419 18.533 0 8.55-6.019 15.02-13.273 18.273-.825.37-1.727-.256-1.727-1.16v-1.312c0-.572.377-1.073.914-1.273 5.89-2.196 10.086-7.872 10.086-14.528s-4.195-12.332-10.086-14.528c-.537-.2-.914-.7-.914-1.273z"/></svg>