<svg fill="#fff" viewBox="0 0 12 21" xmlns="http://www.w3.org/2000/svg"><path d="m.46 13.603h2.227c0 1.202 1.524 2.226 3.338 2.226s3.34-1.024 3.34-2.226c0-1.224-1.158-1.67-3.607-2.259-2.358-.59-5.297-1.324-5.297-4.418 0-1.992 1.636-3.684 3.895-4.251v-2.426h3.339v2.426c2.259.567 3.895 2.259 3.895 4.25h-2.226c0-1.2-1.524-2.225-3.339-2.225s-3.338 1.024-3.338 2.226c0 1.224 1.157 1.67 3.605 2.26 2.36.589 5.298 1.323 5.298 4.417 0 1.992-1.636 3.684-3.895 4.252v2.426h-3.339v-2.426c-2.26-.568-3.895-2.26-3.895-4.252z"/></svg>