<svg fill="none" height="43" viewBox="0 0 43 43" width="43" xmlns="http://www.w3.org/2000/svg"><rect fill="#ff5c16" height="42.2648" rx="10" width="42.2648"/><path d="m15.5684 24.4709h2.2257c0 1.2019 1.5247 2.2258 3.3387 2.2258s3.3387-1.0239 3.3387-2.2258c0-1.2242-1.1574-1.6693-3.6058-2.2592-2.3593-.5898-5.2973-1.3243-5.2973-4.4181 0-1.9921 1.6359-3.6837 3.8951-4.2513v-2.4261h3.3386v2.4261c2.2592.5676 3.8952 2.2592 3.8952 4.2513h-2.2258c0-1.202-1.5247-2.2258-3.3387-2.2258s-3.3387 1.0238-3.3387 2.2258c0 1.2241 1.1574 1.6693 3.6058 2.2591 2.3593.5899 5.2974 1.3244 5.2974 4.4182 0 1.9921-1.636 3.6837-3.8952 4.2512v2.4261h-3.3386v-2.4261c-2.2592-.5675-3.8951-2.2591-3.8951-4.2512z" fill="#fff"/></svg>