<svg fill="none" height="43" viewBox="0 0 43 43" width="43" xmlns="http://www.w3.org/2000/svg"><rect fill="#000" height="42.2648" rx="10" width="42.2648"/><g fill="#fff"><path d="m26.7066 20.4078c.2237-.1118.2984-.3947.1591-.6024l-4.9797-7.4267c-.1648-.2458-.5266-.2451-.6904.0014l-4.9366 7.4272c-.1377.2073-.0634.4883.1588.6004l4.9359 2.4891c.1171.059.2552.0593.3725.0006z"/><path d="m25.9391 24.5761c.2692-.3604-.147-.8316-.5378-.6091l-3.6094 2.0546c-.1268.0722-.2823.0725-.4094.0008l-3.6501-2.0606c-.3917-.2211-.8062.2519-.5356.6112l4.0577 5.3877c.1665.221.4985.2204.6641-.0013z"/></g></svg>